<?xml version="1.0" encoding="UTF-8" standalone="no"?>
<!-- Created with Inkscape (http://www.inkscape.org/) -->

<svg
   version="1.1"
   id="svg2"
   width="561"
   height="176"
   viewBox="0 0 560.99999 176"
   sodipodi:docname="logo.svg"
   inkscape:export-filename="/home/louisremi/Workspace/spotlit-pantera/public/static/img/logo-white.png"
   inkscape:export-xdpi="96"
   inkscape:export-ydpi="96"
   inkscape:version="1.1.1 (1:1.1+202109281954+c3084ef5ed)"
   xmlns:inkscape="http://www.inkscape.org/namespaces/inkscape"
   xmlns:sodipodi="http://sodipodi.sourceforge.net/DTD/sodipodi-0.dtd"
   xmlns="http://www.w3.org/2000/svg"
   xmlns:svg="http://www.w3.org/2000/svg">
  <defs
     id="defs6" />
  <sodipodi:namedview
     id="namedview4"
     pagecolor="#ffffff"
     bordercolor="#666666"
     borderopacity="1.0"
     inkscape:pageshadow="2"
     inkscape:pageopacity="0.0"
     inkscape:pagecheckerboard="0"
     showgrid="false"
     fit-margin-top="45"
     fit-margin-left="0"
     fit-margin-right="0"
     fit-margin-bottom="45"
     inkscape:zoom="0.46609381"
     inkscape:cx="1273.3488"
     inkscape:cy="260.67714"
     inkscape:window-width="2880"
     inkscape:window-height="1856"
     inkscape:window-x="0"
     inkscape:window-y="0"
     inkscape:window-maximized="1"
     inkscape:current-layer="g8" />
  <g
     inkscape:groupmode="layer"
     inkscape:label="Image"
     id="g8"
     transform="translate(-29.520971,-34.875978)">
    <path
       style="fill:#e289ff;fill-opacity:1;stroke-width:0.264266"
       d="M 404.47756,123.76875 V 81.486154 h 2.7748 2.77479 v 39.507796 39.5078 h 30.89168 30.8917 l 0.42438,2.31233 c 0.23342,1.27178 0.42417,2.52044 0.42385,2.7748 0,0.43805 -1.80024,0.46246 -34.09085,0.46246 h -34.09035 z m 72.6732,0.009 V 81.486154 h 2.77563 2.77559 l -0.0669,42.216526 -0.0669,42.21653 -2.70873,0.0753 -2.70874,0.0753 v -42.29184 z m 13.47758,-0.009 V 81.486154 h 2.77479 2.7748 v 42.282596 42.28259 h -2.7748 -2.77479 z m 45.4538,8.98709 V 99.460318 l -16.18084,-0.0681 -16.18084,-0.0681 -0.45214,-2.378396 c -0.24866,-1.308118 -0.45922,-2.527046 -0.46792,-2.708727 -0.0125,-0.261414 4.03667,-0.330334 19.40777,-0.330334 h 19.42356 V 129.979 166.05134 h -2.77479 -2.7748 z M 549.55972,129.979 V 93.906666 h 19.45221 19.4522 l -0.1431,0.594599 c -0.0787,0.32703 -0.27615,1.367578 -0.43875,2.31233 -0.1626,0.944751 -0.35694,1.925839 -0.4319,2.180197 -0.1278,0.433892 -1.13108,0.462465 -16.23865,0.462465 h -16.10242 v 33.297543 33.29754 h -2.77479 -2.7748 z m -293.59979,33.14193 c -19.83501,-1.11033 -35.8007,-12.4434 -41.31075,-29.32396 -1.3966,-4.2786 -1.63174,-6.04741 -1.63174,-12.27448 0,-4.62576 0.0984,-6.2729 0.48138,-8.06012 3.84448,-17.93951 18.98813,-30.819027 39.15778,-33.303303 3.08458,-0.379922 10.9325,-0.376823 14.13826,0.0056 13.50978,1.611549 25.62222,8.286511 32.36925,17.838141 0.71867,1.017427 1.3702,1.909325 1.44781,1.981997 0.698,0.653485 3.25438,6.091895 4.21565,8.968375 1.49781,4.48194 1.73894,6.22948 1.73448,12.56933 -0.005,6.41268 -0.2377,8.1116 -1.72023,12.53401 -3.50431,10.45338 -11.25477,19.11811 -21.53033,24.07015 -8.07575,3.89189 -17.21929,5.56147 -27.35156,4.99428 z m 11.36344,-13.342 c 7.25681,-1.25932 12.6965,-3.86904 17.26801,-8.28444 5.97372,-5.7697 8.74253,-13.57301 8.05212,-22.69321 -0.50243,-6.63719 -3.32575,-12.68584 -8.05212,-17.2508 -4.59094,-4.434159 -9.91194,-6.979853 -17.40012,-8.324652 -3.59642,-0.645877 -11.41724,-0.656195 -14.86121,-0.0196 -13.90801,2.570752 -22.71166,10.561002 -25.05222,22.737582 -0.8633,4.49125 -0.43103,10.82516 1.032,15.12137 3.6601,10.74789 13.18977,17.58389 26.68604,19.14293 2.70913,0.31295 9.39167,0.0803 12.3275,-0.42917 z m -201.502982,13.2062 c -0.436039,-0.0597 -2.101892,-0.28801 -3.701894,-0.50725 -12.159029,-1.66616 -21.965278,-7.22428 -28.648299,-16.23767 -1.475045,-1.98939 -4.115747,-6.32482 -3.940963,-6.47016 0.302677,-0.25168 11.32739,-7.54478 11.405174,-7.54478 0.053,0 0.547306,0.86217 1.098462,1.91593 0.551156,1.05376 1.482833,2.62502 2.070394,3.49169 1.403983,2.07091 4.878806,5.6717 7.04198,7.29726 3.605514,2.70942 8.816691,4.87143 14.41088,5.97877 3.7563,0.74354 13.512457,0.66923 17.511032,-0.13338 5.251272,-1.05405 9.105455,-2.65244 11.822519,-4.90297 3.352591,-2.77693 4.645905,-5.33162 4.647269,-9.17976 7.93e-4,-2.59851 -0.709601,-4.5273 -2.332818,-6.33271 -1.45649,-1.61997 -2.713225,-2.453 -4.998134,-3.31304 -3.495309,-1.31563 -4.999916,-1.4987 -19.250414,-2.34233 -6.10455,-0.36139 -11.87216,-0.72587 -12.816913,-0.80997 -2.824426,-0.25141 -7.487408,-1.13664 -9.828656,-1.8659 -2.169598,-0.67579 -6.564192,-2.4362 -6.820116,-2.73203 -0.07267,-0.084 -0.997126,-0.73219 -2.054341,-1.44041 -3.621541,-2.42603 -6.337079,-6.10937 -7.330924,-9.94365 -0.685096,-2.6431 -0.442507,-8.140403 0.484208,-10.972612 3.076561,-9.402529 12.984621,-15.233929 28.526866,-16.789518 4.246152,-0.424988 16.341949,-0.185141 19.881993,0.39424 10.271543,1.681091 17.861187,5.249359 23.923577,11.247656 2.15965,2.136828 4.67695,5.186374 4.45601,5.398182 -0.33415,0.320354 -12.120317,7.286592 -12.328171,7.286592 -0.139009,0 -0.670456,-0.62432 -1.180991,-1.38739 -3.650647,-5.456442 -9.729625,-9.183938 -17.626055,-10.807912 -3.230436,-0.664372 -10.72561,-0.934203 -14.499748,-0.522001 -7.368933,0.804818 -12.852473,2.800314 -15.802967,5.750809 -1.76477,1.76477 -2.315662,3.179034 -2.179179,5.594434 0.120925,2.1401 0.886202,3.53521 2.633534,4.80097 2.958699,2.14327 6.236073,2.7037 22.45456,3.83972 17.346157,1.215 19.997282,1.57014 25.065495,3.35769 8.452462,2.98116 13.151872,7.81053 15.092402,15.50979 0.72565,2.87907 0.71641,8.6622 -0.0184,11.54562 -2.73957,10.74949 -12.61933,17.76494 -28.668683,20.35715 -2.516452,0.40644 -16.388116,0.75809 -18.498637,0.46894 z M 126.99802,121.36888 V 81.178939 l 27.02122,0.115621 c 23.05685,0.09866 27.42832,0.177812 29.79602,0.53951 11.68222,1.784623 18.33807,6.72659 20.88629,15.508056 0.4532,1.561798 0.60331,2.934444 0.70804,6.474524 0.1174,3.96823 0.0669,4.76884 -0.43252,6.86023 -2.06138,8.63181 -8.54605,14.11688 -19.31195,16.33503 -2.68557,0.55332 -3.45247,0.57444 -23.85003,0.65669 l -21.07523,0.085 v 16.90262 16.90262 h -6.87092 -6.87092 z m 56.81724,-6.95067 c 0.7994,-0.26709 1.9163,-0.72137 2.482,-1.00952 1.24127,-0.63226 3.59612,-2.78391 3.59612,-3.28581 0,-0.19813 0.11038,-0.36024 0.24528,-0.36024 0.1349,0 0.49827,-0.67618 0.80748,-1.50262 1.44508,-3.86231 0.15812,-8.557036 -3.09644,-11.295567 -1.28311,-1.079667 -4.00164,-2.220813 -6.01644,-2.525502 -1.20947,-0.1829 -8.61977,-0.254843 -21.40556,-0.207814 l -19.5557,0.07193 -0.0692,10.382993 -0.0691,10.38298 20.81404,-0.0826 c 19.36787,-0.0769 20.91503,-0.11635 22.26751,-0.56823 z m 161.9952,13.44667 V 94.170932 h -16.63097 c -15.61142,0 -16.63922,-0.02835 -16.76597,-0.462466 -0.0742,-0.254355 -0.56011,-2.840861 -1.07971,-5.74779 -0.5196,-2.906927 -1.01145,-5.612353 -1.09301,-6.012056 l -0.14828,-0.726732 h 42.46977 42.46979 l -0.17834,1.387398 c -0.0981,0.763068 -0.39824,2.517135 -0.66702,3.897927 -0.2688,1.380791 -0.6936,3.669995 -0.94399,5.087123 l -0.4553,2.576596 H 376.16986 359.5523 v 33.693948 33.69394 h -6.87093 -6.87091 z m 72.14468,-10.30639 V 81.486154 h 2.7748 2.77479 v 33.296096 33.29609 l 23.04533,0.0675 23.04533,0.0675 0.44807,2.51053 c 0.24642,1.38079 0.39341,2.59972 0.32663,2.70873 -0.0668,0.10901 -11.88748,0.1982 -26.26819,0.1982 H 417.95514 Z M 501.3093,86.044747 c -0.0978,-0.545049 -0.32727,-1.793707 -0.50983,-2.774796 l -0.33186,-1.783797 h 45.02668 c 41.17614,0 45.02668,0.03631 45.02668,0.424588 0,0.233524 -0.19348,1.482181 -0.42997,2.774796 l -0.42998,2.350208 h -44.0869 -44.08692 z"
       id="path240" />
  </g>
</svg>
