<svg width="574" height="148" viewBox="0 0 574 148" fill="none" xmlns="http://www.w3.org/2000/svg">
<path d="M233.296 66.8396C230.172 64.9503 226.39 64 221.944 64C218.071 64 214.68 64.7863 211.771 66.3531C208.857 67.92 206.464 70.0808 204.587 72.8299H204.355V65.318H187.689V124.429H204.355V90.7725C204.355 88.442 204.825 86.3491 205.761 84.4937C206.702 82.6384 208.029 81.1903 209.753 80.1382C211.476 79.0861 213.529 78.56 215.905 78.56C219.126 78.56 221.632 79.5725 223.435 81.5976C225.238 83.6226 226.134 86.4735 226.134 90.139V124.423H242.743V87.7915C242.743 82.7855 241.949 78.5147 240.356 74.9794C238.768 71.444 236.409 68.7289 233.285 66.8396H233.296Z" fill="#2D0C2D"/>
<path d="M93.5668 64.0566H94.1678C105.667 64.0566 114.984 73.356 114.989 84.8218V124.293H98.6077V83.764C98.6077 80.9075 96.2885 78.5883 93.4193 78.5883H93.2662C90.8677 78.5883 88.7866 80.223 88.2196 82.5422L80.678 113.518C78.9599 120.577 72.6261 125.549 65.3453 125.555C56.613 125.56 49.5307 118.507 49.5307 109.796V83.7471C49.5307 80.8962 47.2115 78.5826 44.3536 78.5826C41.9664 78.5826 39.8854 80.2174 39.324 82.5309L31.8448 113.246C30.087 120.464 23.6114 125.549 16.1662 125.555C7.24106 125.566 0 118.348 0 109.445V65.2727H16.5461V112.251H16.6936L24.3542 80.3135C26.4636 70.8162 34.9068 64.0566 44.6542 64.0566C56.1367 64.0566 65.4474 73.3446 65.4417 84.7935V112.251H65.5892L73.2442 80.3305C75.3592 70.8218 83.8081 64.0566 93.5668 64.0566Z" fill="#2D0C2D"/>
<path fill-rule="evenodd" clip-rule="evenodd" d="M164.673 72.661H165.019L165.013 72.6554V65.3754H181.679V124.436H165.07V117.156H164.668C163.25 118.988 161.554 120.549 159.581 121.828C157.608 123.112 155.448 124.085 153.089 124.752C150.73 125.42 148.229 125.754 145.587 125.754C140.529 125.754 135.998 124.498 131.995 121.998C127.992 119.497 124.862 115.922 122.599 111.278C120.337 106.634 119.208 100.983 119.208 95.0214C119.208 89.0594 120.308 83.7196 122.514 78.9964C124.714 74.2788 127.821 70.6077 131.825 67.9887C135.828 65.3754 140.478 64.063 145.763 64.063C148.484 64.063 151.025 64.4024 153.378 65.0925C155.731 65.7826 157.869 66.7669 159.785 68.0452C161.702 69.3293 163.329 70.8622 164.673 72.661ZM158.322 109.355C160.522 108.015 162.241 106.114 163.465 103.648V103.636C164.69 101.176 165.303 98.257 165.303 95.0101C165.303 91.7632 164.702 88.8897 163.494 86.3838C162.286 83.878 160.574 81.9378 158.351 80.5632C156.128 79.1887 153.452 78.4986 150.65 78.4986C147.849 78.4986 145.343 79.1717 143.12 80.5067C140.897 81.8473 139.174 83.7592 137.949 86.2424C136.724 88.7313 136.112 91.6671 136.112 94.9592C136.112 98.2513 136.741 101.136 138.005 103.619C139.27 106.108 140.999 108.02 143.205 109.355C145.411 110.696 147.832 111.363 150.707 111.363C153.582 111.363 156.117 110.696 158.322 109.355Z" fill="#2D0C2D"/>
<path fill-rule="evenodd" clip-rule="evenodd" d="M292.79 72.943H293.141V65.318H309.806V122.257C309.806 127.608 308.542 132.224 306.013 136.104C303.484 139.985 299.923 142.937 295.324 144.962C290.726 146.987 285.327 148 279.118 148C273.561 148 268.639 147.265 264.347 145.794C260.055 144.318 256.579 142.112 253.914 139.17C251.254 136.229 249.632 132.558 249.06 128.162H265.668C266.394 130.685 268.004 132.546 270.494 133.751C272.983 134.956 276.011 135.556 279.572 135.556C282.481 135.556 284.942 135.035 286.955 134.006C288.968 132.971 290.499 131.455 291.553 129.446C292.608 127.438 293.135 125.04 293.135 122.251V114.055H292.79C290.68 116.77 287.97 118.92 284.658 120.503C281.341 122.093 277.576 122.885 273.363 122.885C268.345 122.885 263.82 121.691 259.799 119.304C255.779 116.917 252.638 113.512 250.375 109.1C248.113 104.682 246.984 99.461 246.984 93.6461C246.984 87.8311 248.096 82.6949 250.319 78.2206C252.541 73.7463 255.654 70.2675 259.658 67.7842C263.661 65.301 268.271 64.0566 273.482 64.0566C277.616 64.0566 281.324 64.8428 284.602 66.4097C287.873 67.9766 290.606 70.1543 292.79 72.943ZM286.184 106.798C288.406 105.559 290.119 103.8 291.327 101.526V101.514C292.534 99.2404 293.135 96.5931 293.135 93.5725C293.135 90.5519 292.534 87.8764 291.327 85.5459C290.119 83.2154 288.395 81.4166 286.155 80.1552C283.915 78.8994 281.398 78.2659 278.483 78.2659C275.569 78.2659 273.023 78.9107 270.84 80.1891C268.657 81.4731 266.95 83.2606 265.725 85.5515C264.5 87.8481 263.888 90.501 263.888 93.5216C263.888 96.5422 264.5 99.1895 265.725 101.463C266.95 103.743 268.674 105.508 270.896 106.769C273.119 108.025 275.665 108.659 278.54 108.659C281.415 108.659 283.961 108.042 286.184 106.798Z" fill="#2D0C2D"/>
<path fill-rule="evenodd" clip-rule="evenodd" d="M362.155 67.9822C357.364 65.3236 351.982 64 346.006 64C340.029 64 334.625 65.3293 329.8 67.9822C324.975 70.6408 321.187 74.3176 318.448 79.0182C315.709 83.7188 314.337 89.0303 314.337 94.9584C314.337 100.886 315.726 106.255 318.505 110.955C321.283 115.656 325.077 119.299 329.885 121.878C334.694 124.457 340.029 125.747 345.892 125.747C351.756 125.747 357.205 124.446 362.013 121.85C366.822 119.253 370.604 115.611 373.365 110.927C376.127 106.243 377.505 100.92 377.505 94.9584C377.505 88.9964 376.144 83.6283 373.422 78.9616C370.7 74.3006 366.947 70.6408 362.155 67.9822ZM358.679 103.788C357.358 106.311 355.577 108.263 353.332 109.637C351.092 111.012 348.609 111.702 345.887 111.702C343.165 111.702 340.687 111.006 338.447 109.609C336.207 108.212 334.433 106.266 333.128 103.76C331.824 101.254 331.172 98.341 331.172 95.015C331.172 91.6889 331.824 88.6966 333.128 86.1568C334.433 83.617 336.196 81.6485 338.419 80.2513C340.642 78.8541 343.131 78.1584 345.892 78.1584C348.654 78.1584 351.2 78.8541 353.423 80.2513C355.646 81.6485 357.409 83.617 358.713 86.1568C360.017 88.6966 360.669 91.6323 360.669 94.9584C360.669 98.2845 360.006 101.265 358.685 103.788H358.679Z" fill="#2D0C2D"/>
<path fill-rule="evenodd" clip-rule="evenodd" d="M418.048 64.0566C423.299 64.0566 427.926 65.3632 431.929 67.9822C435.932 70.6012 439.034 74.2723 441.24 78.9899C443.446 83.7131 444.546 88.821 444.546 95.015C444.546 101.209 443.417 106.628 441.155 111.272C438.892 115.916 435.762 119.485 431.759 121.991C427.756 124.497 423.225 125.747 418.167 125.747C415.525 125.747 413.001 125.408 410.608 124.718C408.21 124.027 406.015 123.038 404.025 121.737C402.035 120.441 400.328 118.869 398.911 117.036H398.797V146.733H382.132V65.3745H398.797V72.8242H398.911C400.254 70.9915 401.899 69.4133 403.855 68.0954C405.806 66.7774 407.983 65.7762 410.376 65.0861C412.769 64.4016 415.326 64.0566 418.048 64.0566ZM420.611 109.349C422.811 108.008 424.535 106.096 425.782 103.613V103.624C427.024 101.135 427.648 98.2901 427.648 94.964C427.648 91.638 427.036 88.7305 425.811 86.2473C424.586 83.7584 422.862 81.8521 420.639 80.5115C418.417 79.1709 416.018 78.5034 413.109 78.5034C410.2 78.5034 407.637 79.1935 405.437 80.5681C403.231 81.9426 401.53 83.8885 400.322 86.3887C399.115 88.8889 398.514 91.7285 398.514 95.015C398.514 98.3014 399.126 101.175 400.351 103.641C401.576 106.107 403.282 108.014 405.465 109.349C407.649 110.689 410.217 111.357 413.052 111.357C415.888 111.357 418.405 110.689 420.611 109.349Z" fill="#2D0C2D"/>
<path fill-rule="evenodd" clip-rule="evenodd" d="M493.73 72.661H493.385C492.041 70.8622 490.413 69.3293 488.497 68.0452C486.58 66.7669 484.442 65.7826 482.089 65.0925C479.73 64.4024 477.196 64.063 474.474 64.063C469.183 64.063 464.539 65.3754 460.536 67.9887C456.533 70.6077 453.426 74.2788 451.225 78.9964C449.02 83.7196 447.92 89.0594 447.92 95.0214C447.92 100.983 449.048 106.634 451.31 111.278C453.573 115.922 456.703 119.497 460.706 121.998C464.71 124.498 469.24 125.754 474.298 125.754C476.941 125.754 479.441 125.42 481.8 124.752C484.159 124.085 486.319 123.112 488.293 121.828C490.266 120.549 491.961 118.988 493.379 117.156H493.782V124.436H510.39V65.3754H493.725V72.6554L493.73 72.661ZM492.177 103.648C490.952 106.114 489.234 108.015 487.034 109.355C484.828 110.696 482.293 111.363 479.418 111.363C476.544 111.363 474.122 110.696 471.917 109.355C469.711 108.02 467.981 106.108 466.717 103.619C465.452 101.136 464.817 98.2513 464.817 94.9592C464.817 91.6671 465.43 88.7313 466.654 86.2424C467.879 83.7592 469.603 81.8473 471.826 80.5067C474.049 79.1717 476.555 78.4986 479.356 78.4986C482.157 78.4986 484.834 79.1887 487.056 80.5632C489.279 81.9378 490.992 83.878 492.2 86.3838C493.407 88.8897 494.008 91.7632 494.008 95.0101C494.008 98.257 493.396 101.176 492.171 103.636L492.177 103.648Z" fill="#2D0C2D"/>
<path d="M546.703 95.8174L556.875 65.3171H574L548.086 132.461C546.283 137.195 543.516 140.764 539.779 143.151C536.043 145.539 530.86 146.732 524.231 146.732H517.965V133.315H524.231C526.794 133.315 528.807 132.941 530.264 132.195C531.722 131.454 532.867 130.141 533.712 128.269L535.266 124.541L512.046 65.3171H529.113L539.575 95.8174C540.567 98.8776 541.736 102.526 543.079 106.768H543.369C544.633 102.566 545.745 98.9115 546.703 95.8174Z" fill="#2D0C2D"/>
<path d="M0 36.766V1.02128H12.3817C15.168 1.02128 17.4667 1.49787 19.2778 2.45106C21.0889 3.37021 22.4298 4.64681 23.3005 6.28085C24.1713 7.91489 24.6066 9.78723 24.6066 11.8979C24.6066 14.0085 24.1713 15.8809 23.3005 17.5149C22.4298 19.1489 21.0889 20.4426 19.2778 21.3957C17.4667 22.3149 15.168 22.7745 12.3817 22.7745H5.5378V36.766H0ZM5.5378 17.9234H12.1205C14.4888 17.9234 16.2129 17.3787 17.2926 16.2894C18.4071 15.2 18.9643 13.7362 18.9643 11.8979C18.9643 10.0936 18.4071 8.64681 17.2926 7.55745C16.2129 6.43404 14.4888 5.87234 12.1205 5.87234H5.5378V17.9234Z" fill="#2D0C2D"/>
<path d="M43.2894 37.3787C40.8165 37.3787 38.6049 36.834 36.6544 35.7447C34.704 34.6553 33.1716 33.1234 32.057 31.1489C30.9425 29.1404 30.3852 26.7915 30.3852 24.1021C30.3852 21.4128 30.9425 19.0809 32.057 17.1064C33.1716 15.0979 34.704 13.5489 36.6544 12.4596C38.6049 11.3702 40.8339 10.8255 43.3416 10.8255C45.8493 10.8255 48.0609 11.3702 49.9765 12.4596C51.9269 13.5489 53.442 15.0979 54.5217 17.1064C55.6362 19.0809 56.1935 21.4128 56.1935 24.1021C56.1935 26.7915 55.6362 29.1404 54.5217 31.1489C53.4072 33.1234 51.8747 34.6553 49.9243 35.7447C48.0087 36.834 45.797 37.3787 43.2894 37.3787ZM43.2894 32.2213C44.6129 32.2213 45.8319 31.9319 46.9464 31.3532C48.0609 30.7745 48.9491 29.8894 49.6108 28.6979C50.3074 27.4723 50.6557 25.9404 50.6557 24.1021C50.6557 22.2298 50.3074 20.6979 49.6108 19.5064C48.9491 18.3149 48.0609 17.4298 46.9464 16.8511C45.8667 16.2723 44.6651 15.983 43.3416 15.983C42.0181 15.983 40.7991 16.2723 39.6846 16.8511C38.57 17.4298 37.6645 18.3149 36.9679 19.5064C36.3062 20.6979 35.9753 22.2298 35.9753 24.1021C35.9753 26.8936 36.6893 28.9532 38.1173 30.2808C39.5801 31.5745 41.3041 32.2213 43.2894 32.2213Z" fill="#2D0C2D"/>
<path d="M65.0022 36.766L59.3599 11.4383H64.7932L67.9278 29.2085L71.6371 11.4383H77.5928L81.3021 29.2085L84.4367 11.4383H89.87L84.2277 36.766H78.5332L74.615 18.4851L70.6967 36.766H65.0022Z" fill="#2D0C2D"/>
<path d="M106.254 37.3787C103.746 37.3787 101.535 36.834 99.6191 35.7447C97.7035 34.6213 96.2059 33.0723 95.1262 31.0979C94.0465 29.1234 93.5067 26.8255 93.5067 24.2043C93.5067 21.5489 94.0291 19.217 95.074 17.2085C96.1537 15.2 97.6513 13.634 99.5669 12.5106C101.517 11.3872 103.764 10.8255 106.306 10.8255C108.814 10.8255 110.973 11.3872 112.784 12.5106C114.596 13.6 115.989 15.0638 116.964 16.9021C117.974 18.7404 118.479 20.766 118.479 22.9787C118.479 23.3191 118.479 23.6936 118.479 24.1021C118.479 24.4766 118.462 24.9021 118.427 25.3787H98.94C99.1141 27.7277 99.8978 29.5149 101.291 30.7404C102.684 31.9319 104.321 32.5277 106.202 32.5277C107.839 32.5277 109.127 32.2043 110.068 31.5574C111.043 30.8766 111.757 29.9574 112.21 28.8H117.8C117.173 31.217 115.867 33.2596 113.882 34.9277C111.896 36.5617 109.354 37.3787 106.254 37.3787ZM106.254 15.5234C104.547 15.5234 103.032 16.034 101.709 17.0553C100.385 18.0426 99.5321 19.4383 99.1489 21.2426H112.941C112.802 19.5404 112.123 18.1617 110.904 17.1064C109.685 16.0511 108.135 15.5234 106.254 15.5234Z" fill="#2D0C2D"/>
<path d="M125.616 36.766V32.0681H131.937V17.8213C131.937 16.6979 131.38 16.1362 130.266 16.1362H126.138V11.4383H132.355C133.783 11.4383 134.95 11.8468 135.856 12.6638C136.761 13.4468 137.214 14.5532 137.214 15.983V16.5957H137.475C137.858 14.6894 138.677 13.2596 139.931 12.3064C141.219 11.3191 143.083 10.8255 145.521 10.8255H149.543V16.5447H143.901C141.846 16.5447 140.261 17.2426 139.147 18.6383C138.032 20.034 137.475 21.7021 137.475 23.6426V32.0681H145.521V36.766H125.616Z" fill="#2D0C2D"/>
<path d="M168.905 37.3787C166.398 37.3787 164.186 36.834 162.27 35.7447C160.355 34.6213 158.857 33.0723 157.777 31.0979C156.698 29.1234 156.158 26.8255 156.158 24.2043C156.158 21.5489 156.68 19.217 157.725 17.2085C158.805 15.2 160.303 13.634 162.218 12.5106C164.169 11.3872 166.415 10.8255 168.958 10.8255C171.465 10.8255 173.625 11.3872 175.436 12.5106C177.247 13.6 178.64 15.0638 179.615 16.9021C180.625 18.7404 181.13 20.766 181.13 22.9787C181.13 23.3191 181.13 23.6936 181.13 24.1021C181.13 24.4766 181.113 24.9021 181.078 25.3787H161.591C161.765 27.7277 162.549 29.5149 163.942 30.7404C165.335 31.9319 166.972 32.5277 168.853 32.5277C170.49 32.5277 171.779 32.2043 172.719 31.5574C173.694 30.8766 174.408 29.9574 174.861 28.8H180.451C179.824 31.217 178.518 33.2596 176.533 34.9277C174.548 36.5617 172.005 37.3787 168.905 37.3787ZM168.905 15.5234C167.199 15.5234 165.684 16.034 164.36 17.0553C163.037 18.0426 162.183 19.4383 161.8 21.2426H175.592C175.453 19.5404 174.774 18.1617 173.555 17.1064C172.336 16.0511 170.786 15.5234 168.905 15.5234Z" fill="#2D0C2D"/>
<path d="M198.507 37.3787C196.347 37.3787 194.414 36.8851 192.708 35.8979C191.001 34.8766 189.643 33.3787 188.633 31.4043C187.658 29.4298 187.17 26.9957 187.17 24.1021C187.17 21.2085 187.675 18.7745 188.685 16.8C189.695 14.8255 191.053 13.3447 192.76 12.3574C194.502 11.3362 196.435 10.8255 198.559 10.8255C200.544 10.8255 202.181 11.2 203.47 11.9489C204.759 12.6638 205.716 13.583 206.343 14.7064V0H211.881V36.766H207.127L206.657 33.0383H206.343C205.647 34.366 204.654 35.4213 203.366 36.2043C202.112 36.9872 200.492 37.3787 198.507 37.3787ZM199.656 32.2213C201.641 32.2213 203.278 31.5404 204.567 30.1787C205.891 28.817 206.552 26.7915 206.552 24.1021C206.552 21.3787 205.891 19.3532 204.567 18.0255C203.278 16.6638 201.641 15.983 199.656 15.983C197.671 15.983 196.017 16.6638 194.693 18.0255C193.404 19.3872 192.76 21.4298 192.76 24.1532C192.76 26.8426 193.404 28.8681 194.693 30.2298C196.017 31.5574 197.671 32.2213 199.656 32.2213Z" fill="#2D0C2D"/>
<path d="M263.979 37.3787C262.064 37.3787 260.444 37.0043 259.121 36.2553C257.832 35.4723 256.839 34.4 256.143 33.0383H255.829L255.359 36.766H250.605V0H256.143V14.7064C256.77 13.6851 257.762 12.783 259.121 12C260.479 11.217 262.098 10.8255 263.979 10.8255C266.139 10.8255 268.072 11.3362 269.778 12.3574C271.485 13.3447 272.826 14.8255 273.801 16.8C274.811 18.7745 275.316 21.2085 275.316 24.1021C275.316 26.9957 274.811 29.4298 273.801 31.4043C272.826 33.3787 271.485 34.8766 269.778 35.8979C268.072 36.8851 266.139 37.3787 263.979 37.3787ZM262.83 32.2213C264.815 32.2213 266.452 31.5574 267.741 30.2298C269.064 28.8681 269.726 26.8426 269.726 24.1532C269.726 21.4298 269.064 19.3872 267.741 18.0255C266.452 16.6638 264.815 15.983 262.83 15.983C260.845 15.983 259.19 16.6638 257.867 18.0255C256.578 19.3532 255.934 21.3787 255.934 24.1021C255.934 26.7915 256.578 28.817 257.867 30.1787C259.19 31.5404 260.845 32.2213 262.83 32.2213Z" fill="#2D0C2D"/>
<path d="M285.692 48L291.857 34.6723H290.342L280.259 11.4383H286.267L293.999 29.9745L302.201 11.4383H308L291.543 48H285.692Z" fill="#2D0C2D"/>
</svg>
